<svg width="24" height="24" viewBox="0 0 24 24" fill="none" xmlns="http://www.w3.org/2000/svg">
<path fill-rule="evenodd" clip-rule="evenodd" d="M2.22806 11.5488C4.46708 7.74161 8.12058 5.46869 12.0001 5.46869C13.3686 5.46869 14.709 5.75162 15.9691 6.285L19.0162 3.23795C19.2939 2.96021 19.7483 2.96021 20.0261 3.23795C20.3038 3.51569 20.3038 3.97016 20.0261 4.2479L17.3094 6.9646L15.3575 8.91647L14.3479 9.92603L9.57669 14.6972L8.56709 15.7068L6.59659 17.6773L3.51193 20.762C3.23419 21.0397 2.77971 21.0397 2.50197 20.762C2.22424 20.4843 2.22424 20.0298 2.50197 19.7521L5.40673 16.8473C4.18036 15.875 3.0976 14.6283 2.22806 13.1499C1.924 12.6338 1.924 12.0652 2.22806 11.5488ZM14.1835 8.07063C13.528 7.73466 12.7858 7.54492 12.0001 7.54492C9.35086 7.54492 7.19565 9.70032 7.19565 12.3495C7.19565 13.1352 7.38544 13.8774 7.72133 14.5328L8.80725 13.4468C8.6886 13.1027 8.62411 12.7335 8.62411 12.3495C8.62411 10.4879 10.1387 8.9733 12.0001 8.9733C12.3841 8.9733 12.7533 9.03782 13.0975 9.15652L14.1835 8.07063ZM18.5089 7.78493L16.2268 10.067C16.5951 10.7464 16.8045 11.524 16.8045 12.3495C16.8045 14.9985 14.6493 17.1539 12.0001 17.1539C11.1745 17.1539 10.397 16.9445 9.71765 16.5762L7.92549 18.3684C9.21619 18.9309 10.5932 19.2301 12.0001 19.2301C15.8796 19.2301 19.5327 16.9572 21.7721 13.1499C22.076 12.6338 22.076 12.0652 21.7721 11.5488C20.8827 10.0366 19.7701 8.76676 18.5089 7.78493ZM15.1524 11.1414L10.792 15.5018C11.1673 15.6461 11.5746 15.7255 12.0001 15.7255C13.8615 15.7255 15.376 14.2109 15.376 12.3495C15.376 11.924 15.2967 11.5167 15.1524 11.1414Z" fill="#E6F4FF"/>
</svg>
